<?xml version="1.0" standalone="no"?>
<svg xmlns:xlink="http://www.w3.org/1999/xlink" id="wave" style="transform:rotate(0deg); transition: 0.3s" viewBox="0 0 1440 240" version="1.1" xmlns="http://www.w3.org/2000/svg"><defs><linearGradient id="sw-gradient-0" x1="0" x2="0" y1="1" y2="0"><stop stop-color="rgba(255, 255, 255, 1)" offset="0%"/><stop stop-color="rgba(255, 255, 255, 1)" offset="100%"/></linearGradient></defs><path style="transform:translate(0, 0px); opacity:1" fill="url(#sw-gradient-0)" d="M0,96L13.3,88C26.7,80,53,64,80,64C106.7,64,133,80,160,96C186.7,112,213,128,240,124C266.7,120,293,96,320,100C346.7,104,373,136,400,136C426.7,136,453,104,480,80C506.7,56,533,40,560,44C586.7,48,613,72,640,104C666.7,136,693,176,720,188C746.7,200,773,184,800,148C826.7,112,853,56,880,36C906.7,16,933,32,960,52C986.7,72,1013,96,1040,88C1066.7,80,1093,40,1120,48C1146.7,56,1173,112,1200,120C1226.7,128,1253,88,1280,68C1306.7,48,1333,48,1360,40C1386.7,32,1413,16,1440,36C1466.7,56,1493,112,1520,128C1546.7,144,1573,120,1600,116C1626.7,112,1653,128,1680,116C1706.7,104,1733,64,1760,60C1786.7,56,1813,88,1840,104C1866.7,120,1893,120,1907,120L1920,120L1920,240L1906.7,240C1893.3,240,1867,240,1840,240C1813.3,240,1787,240,1760,240C1733.3,240,1707,240,1680,240C1653.3,240,1627,240,1600,240C1573.3,240,1547,240,1520,240C1493.3,240,1467,240,1440,240C1413.3,240,1387,240,1360,240C1333.3,240,1307,240,1280,240C1253.3,240,1227,240,1200,240C1173.3,240,1147,240,1120,240C1093.3,240,1067,240,1040,240C1013.3,240,987,240,960,240C933.3,240,907,240,880,240C853.3,240,827,240,800,240C773.3,240,747,240,720,240C693.3,240,667,240,640,240C613.3,240,587,240,560,240C533.3,240,507,240,480,240C453.3,240,427,240,400,240C373.3,240,347,240,320,240C293.3,240,267,240,240,240C213.3,240,187,240,160,240C133.3,240,107,240,80,240C53.3,240,27,240,13,240L0,240Z"/></svg>